# xmcd
#
# Track frame offsets: 
#        150
#        5719
#        17502
#        34285
#        48750
#        56808
#        70650
#        98582
#        107716
#        121004
#        143227
#
# Disc length: 2207 seconds
#
# Revision: 1
# Processed by: cddbd v1.5.2PL0 Copyright (c) Steve Scherf et al.
# Submitted via: ExactAudioCopy v1.3
#
DISCID=89089d0b
DTITLE=El Michels Affair - Loose Change
DYEAR=2014
DGENRE=Funk
TTITLE0=Kiddy Diddy
TTITLE1=This Song's For You (Alt. Mix)
TTITLE2=Little House
TTITLE3=Musings To Myself (Alt. Mix)
TTITLE4=By The Time I Get To Phoenix
TTITLE5=Yennicita (Alt. Mix)
TTITLE6=Walk On By
TTITLE7=A Little Sloppy
TTITLE8=Blind Love
TTITLE9=Easy Access (Pt. 1)
TTITLE10=Easy Access (Pt. 2)
EXTD=
EXTT0=
EXTT1=
EXTT2=
EXTT3=
EXTT4=
EXTT5=
EXTT6=
EXTT7=
EXTT8=
EXTT9=
EXTT10=
PLAYORDER=
